<mxfile host="app.diagrams.net" modified="2023-11-09T12:48:25.893Z" agent="Mozilla/5.0 (Windows NT 10.0; Win64; x64) AppleWebKit/537.36 (KHTML, like Gecko) Chrome/119.0.0.0 Safari/537.36 Edg/119.0.0.0" etag="m8L5BPFIexSqo91fA3HQ" version="22.1.0" type="github">
  <diagram name="Page-1" id="wuofGZKgwK-js_nQWKqF">
    <mxGraphModel dx="1332" dy="728" grid="1" gridSize="10" guides="1" tooltips="1" connect="1" arrows="1" fold="1" page="1" pageScale="1" pageWidth="827" pageHeight="1169" math="0" shadow="0">
      <root>
        <mxCell id="0" />
        <mxCell id="1" parent="0" />
        <mxCell id="CHzbfjj1ZIRkGf9tCg_J-69" value="" style="rounded=0;whiteSpace=wrap;html=1;movable=0;resizable=0;rotatable=0;deletable=0;editable=0;locked=1;connectable=0;strokeColor=none;fillColor=none;" vertex="1" parent="1">
          <mxGeometry x="410" y="270" width="850" height="540" as="geometry" />
        </mxCell>
        <mxCell id="CHzbfjj1ZIRkGf9tCg_J-10" value="Matchmaking System" style="text;html=1;strokeColor=none;fillColor=none;align=center;verticalAlign=middle;whiteSpace=wrap;rounded=0;fontStyle=1;fontColor=#000000;fontSize=30;fontFamily=Comic Sans MS;labelPosition=center;verticalLabelPosition=middle;" vertex="1" parent="1">
          <mxGeometry x="575" y="290" width="520" height="70" as="geometry" />
        </mxCell>
        <mxCell id="CHzbfjj1ZIRkGf9tCg_J-67" value="" style="shape=flexArrow;endArrow=classic;html=1;rounded=0;fillColor=#7EA6E0;strokeColor=none;exitX=1;exitY=0.5;exitDx=0;exitDy=0;" edge="1" parent="1" source="CHzbfjj1ZIRkGf9tCg_J-95" target="CHzbfjj1ZIRkGf9tCg_J-72">
          <mxGeometry width="50" height="50" relative="1" as="geometry">
            <mxPoint x="770" y="620" as="sourcePoint" />
            <mxPoint x="980" y="565" as="targetPoint" />
          </mxGeometry>
        </mxCell>
        <mxCell id="CHzbfjj1ZIRkGf9tCg_J-77" value="" style="group" vertex="1" connectable="0" parent="1">
          <mxGeometry x="500" y="405" width="170" height="160" as="geometry" />
        </mxCell>
        <mxCell id="CHzbfjj1ZIRkGf9tCg_J-36" value="" style="whiteSpace=wrap;html=1;aspect=fixed;fillColor=#dae8fc;strokeColor=#6c8ebf;container=0;movable=1;resizable=1;rotatable=1;deletable=1;editable=1;locked=0;connectable=1;" vertex="1" parent="CHzbfjj1ZIRkGf9tCg_J-77">
          <mxGeometry width="160" height="160" as="geometry" />
        </mxCell>
        <mxCell id="CHzbfjj1ZIRkGf9tCg_J-37" value="Client" style="text;html=1;strokeColor=none;fillColor=none;align=center;verticalAlign=middle;whiteSpace=wrap;rounded=0;fontSize=19;fontFamily=Comic Sans MS;fontStyle=1;container=0;movable=1;resizable=1;rotatable=1;deletable=1;editable=1;locked=0;connectable=1;" vertex="1" parent="CHzbfjj1ZIRkGf9tCg_J-77">
          <mxGeometry x="7.391304347826086" y="13.91304347826087" width="155.2173913043478" height="20.869565217391305" as="geometry" />
        </mxCell>
        <mxCell id="CHzbfjj1ZIRkGf9tCg_J-40" value="" style="verticalLabelPosition=bottom;html=1;verticalAlign=top;align=center;strokeColor=none;fillColor=#00BEF2;shape=mxgraph.azure.user;movable=1;resizable=1;rotatable=1;deletable=1;editable=1;locked=0;connectable=1;container=0;" vertex="1" parent="CHzbfjj1ZIRkGf9tCg_J-77">
          <mxGeometry x="59.13043478260869" y="59.130434782608695" width="44.347826086956516" height="41.73913043478261" as="geometry" />
        </mxCell>
        <mxCell id="CHzbfjj1ZIRkGf9tCg_J-90" value="" style="group" vertex="1" connectable="0" parent="1">
          <mxGeometry x="510" y="415" width="170" height="160" as="geometry" />
        </mxCell>
        <mxCell id="CHzbfjj1ZIRkGf9tCg_J-91" value="" style="whiteSpace=wrap;html=1;aspect=fixed;fillColor=#dae8fc;strokeColor=#6c8ebf;container=0;movable=1;resizable=1;rotatable=1;deletable=1;editable=1;locked=0;connectable=1;" vertex="1" parent="CHzbfjj1ZIRkGf9tCg_J-90">
          <mxGeometry width="160" height="160" as="geometry" />
        </mxCell>
        <mxCell id="CHzbfjj1ZIRkGf9tCg_J-92" value="Client" style="text;html=1;strokeColor=none;fillColor=none;align=center;verticalAlign=middle;whiteSpace=wrap;rounded=0;fontSize=19;fontFamily=Comic Sans MS;fontStyle=1;container=0;movable=1;resizable=1;rotatable=1;deletable=1;editable=1;locked=0;connectable=1;" vertex="1" parent="CHzbfjj1ZIRkGf9tCg_J-90">
          <mxGeometry x="7.391304347826086" y="13.91304347826087" width="155.2173913043478" height="20.869565217391305" as="geometry" />
        </mxCell>
        <mxCell id="CHzbfjj1ZIRkGf9tCg_J-93" value="" style="verticalLabelPosition=bottom;html=1;verticalAlign=top;align=center;strokeColor=none;fillColor=#00BEF2;shape=mxgraph.azure.user;movable=1;resizable=1;rotatable=1;deletable=1;editable=1;locked=0;connectable=1;container=0;" vertex="1" parent="CHzbfjj1ZIRkGf9tCg_J-90">
          <mxGeometry x="59.13043478260869" y="59.130434782608695" width="44.347826086956516" height="41.73913043478261" as="geometry" />
        </mxCell>
        <mxCell id="CHzbfjj1ZIRkGf9tCg_J-94" value="" style="group" vertex="1" connectable="0" parent="1">
          <mxGeometry x="520" y="425" width="170" height="160" as="geometry" />
        </mxCell>
        <mxCell id="CHzbfjj1ZIRkGf9tCg_J-95" value="" style="whiteSpace=wrap;html=1;aspect=fixed;fillColor=#dae8fc;strokeColor=#6c8ebf;container=0;movable=1;resizable=1;rotatable=1;deletable=1;editable=1;locked=0;connectable=1;" vertex="1" parent="CHzbfjj1ZIRkGf9tCg_J-94">
          <mxGeometry width="160" height="160" as="geometry" />
        </mxCell>
        <mxCell id="CHzbfjj1ZIRkGf9tCg_J-96" value="Client" style="text;html=1;strokeColor=none;fillColor=none;align=center;verticalAlign=middle;whiteSpace=wrap;rounded=0;fontSize=19;fontFamily=Comic Sans MS;fontStyle=1;container=0;movable=1;resizable=1;rotatable=1;deletable=1;editable=1;locked=0;connectable=1;" vertex="1" parent="CHzbfjj1ZIRkGf9tCg_J-94">
          <mxGeometry x="7.391304347826086" y="13.91304347826087" width="155.2173913043478" height="20.869565217391305" as="geometry" />
        </mxCell>
        <mxCell id="CHzbfjj1ZIRkGf9tCg_J-97" value="" style="verticalLabelPosition=bottom;html=1;verticalAlign=top;align=center;strokeColor=none;fillColor=#00BEF2;shape=mxgraph.azure.user;movable=1;resizable=1;rotatable=1;deletable=1;editable=1;locked=0;connectable=1;container=0;" vertex="1" parent="CHzbfjj1ZIRkGf9tCg_J-94">
          <mxGeometry x="59.13043478260869" y="59.130434782608695" width="44.347826086956516" height="41.73913043478261" as="geometry" />
        </mxCell>
        <mxCell id="CHzbfjj1ZIRkGf9tCg_J-132" value="" style="whiteSpace=wrap;html=1;aspect=fixed;fillColor=#dae8fc;strokeColor=#6c8ebf;container=0;movable=1;resizable=1;rotatable=1;deletable=1;editable=1;locked=0;connectable=1;" vertex="1" parent="1">
          <mxGeometry x="503.7" y="600" width="160" height="160" as="geometry" />
        </mxCell>
        <mxCell id="CHzbfjj1ZIRkGf9tCg_J-133" value="Client" style="text;html=1;strokeColor=none;fillColor=none;align=center;verticalAlign=middle;whiteSpace=wrap;rounded=0;fontSize=19;fontFamily=Comic Sans MS;fontStyle=1;container=0;movable=1;resizable=1;rotatable=1;deletable=1;editable=1;locked=0;connectable=1;" vertex="1" parent="1">
          <mxGeometry x="511.091304347826" y="613.9130434782609" width="155.2173913043478" height="20.869565217391305" as="geometry" />
        </mxCell>
        <mxCell id="CHzbfjj1ZIRkGf9tCg_J-134" value="" style="verticalLabelPosition=bottom;html=1;verticalAlign=top;align=center;strokeColor=none;fillColor=#00BEF2;shape=mxgraph.azure.user;movable=1;resizable=1;rotatable=1;deletable=1;editable=1;locked=0;connectable=1;container=0;" vertex="1" parent="1">
          <mxGeometry x="562.8304347826088" y="659.1304347826087" width="44.347826086956516" height="41.73913043478261" as="geometry" />
        </mxCell>
        <mxCell id="CHzbfjj1ZIRkGf9tCg_J-137" value="" style="whiteSpace=wrap;html=1;aspect=fixed;fillColor=#dae8fc;strokeColor=#6c8ebf;container=0;movable=1;resizable=1;rotatable=1;deletable=1;editable=1;locked=0;connectable=1;" vertex="1" parent="1">
          <mxGeometry x="513.7" y="610" width="160" height="160" as="geometry" />
        </mxCell>
        <mxCell id="CHzbfjj1ZIRkGf9tCg_J-138" value="Client" style="text;html=1;strokeColor=none;fillColor=none;align=center;verticalAlign=middle;whiteSpace=wrap;rounded=0;fontSize=19;fontFamily=Comic Sans MS;fontStyle=1;container=0;movable=1;resizable=1;rotatable=1;deletable=1;editable=1;locked=0;connectable=1;" vertex="1" parent="1">
          <mxGeometry x="521.091304347826" y="623.9130434782609" width="155.2173913043478" height="20.869565217391305" as="geometry" />
        </mxCell>
        <mxCell id="CHzbfjj1ZIRkGf9tCg_J-139" value="" style="verticalLabelPosition=bottom;html=1;verticalAlign=top;align=center;strokeColor=none;fillColor=#00BEF2;shape=mxgraph.azure.user;movable=1;resizable=1;rotatable=1;deletable=1;editable=1;locked=0;connectable=1;container=0;" vertex="1" parent="1">
          <mxGeometry x="572.8304347826088" y="669.1304347826087" width="44.347826086956516" height="41.73913043478261" as="geometry" />
        </mxCell>
        <mxCell id="CHzbfjj1ZIRkGf9tCg_J-140" value="" style="whiteSpace=wrap;html=1;aspect=fixed;fillColor=#dae8fc;strokeColor=#6c8ebf;container=0;movable=1;resizable=1;rotatable=1;deletable=1;editable=1;locked=0;connectable=1;" vertex="1" parent="1">
          <mxGeometry x="523.7" y="620" width="160" height="160" as="geometry" />
        </mxCell>
        <mxCell id="CHzbfjj1ZIRkGf9tCg_J-141" value="Client" style="text;html=1;strokeColor=none;fillColor=none;align=center;verticalAlign=middle;whiteSpace=wrap;rounded=0;fontSize=19;fontFamily=Comic Sans MS;fontStyle=1;container=0;movable=1;resizable=1;rotatable=1;deletable=1;editable=1;locked=0;connectable=1;" vertex="1" parent="1">
          <mxGeometry x="531.091304347826" y="633.9130434782609" width="155.2173913043478" height="20.869565217391305" as="geometry" />
        </mxCell>
        <mxCell id="CHzbfjj1ZIRkGf9tCg_J-142" value="" style="verticalLabelPosition=bottom;html=1;verticalAlign=top;align=center;strokeColor=none;fillColor=#00BEF2;shape=mxgraph.azure.user;movable=1;resizable=1;rotatable=1;deletable=1;editable=1;locked=0;connectable=1;container=0;" vertex="1" parent="1">
          <mxGeometry x="582.8304347826088" y="679.1304347826087" width="44.347826086956516" height="41.73913043478261" as="geometry" />
        </mxCell>
        <mxCell id="CHzbfjj1ZIRkGf9tCg_J-143" value="" style="group" vertex="1" connectable="0" parent="1">
          <mxGeometry x="870" y="420" width="180" height="110" as="geometry" />
        </mxCell>
        <mxCell id="CHzbfjj1ZIRkGf9tCg_J-72" value="" style="sketch=0;pointerEvents=1;shadow=0;dashed=0;html=1;labelPosition=center;verticalLabelPosition=bottom;verticalAlign=top;outlineConnect=0;align=center;shape=mxgraph.office.concepts.credit_card;fillColor=#b1ddf0;strokeColor=#10739e;" vertex="1" parent="CHzbfjj1ZIRkGf9tCg_J-143">
          <mxGeometry width="180" height="110" as="geometry" />
        </mxCell>
        <mxCell id="CHzbfjj1ZIRkGf9tCg_J-73" value="&lt;b&gt;&lt;font style=&quot;font-size: 20px;&quot;&gt;Token&lt;/font&gt;&lt;/b&gt;" style="text;html=1;strokeColor=none;fillColor=#b1ddf0;align=center;verticalAlign=middle;whiteSpace=wrap;rounded=0;fontColor=#000000;fontFamily=Comic Sans MS;" vertex="1" parent="CHzbfjj1ZIRkGf9tCg_J-143">
          <mxGeometry x="60" y="45" width="60" height="30" as="geometry" />
        </mxCell>
        <mxCell id="CHzbfjj1ZIRkGf9tCg_J-151" value="" style="sketch=0;pointerEvents=1;shadow=0;dashed=0;html=1;labelPosition=center;verticalLabelPosition=bottom;verticalAlign=top;outlineConnect=0;align=center;shape=mxgraph.office.concepts.credit_card;fillColor=#b1ddf0;strokeColor=#10739e;" vertex="1" parent="1">
          <mxGeometry x="880" y="613.91" width="180" height="110" as="geometry" />
        </mxCell>
        <mxCell id="CHzbfjj1ZIRkGf9tCg_J-152" value="&lt;b&gt;&lt;font style=&quot;font-size: 20px;&quot;&gt;Token&lt;/font&gt;&lt;/b&gt;" style="text;html=1;strokeColor=none;fillColor=#b1ddf0;align=center;verticalAlign=middle;whiteSpace=wrap;rounded=0;fontColor=#000000;fontFamily=Comic Sans MS;" vertex="1" parent="1">
          <mxGeometry x="940" y="664.78" width="60" height="30" as="geometry" />
        </mxCell>
        <mxCell id="CHzbfjj1ZIRkGf9tCg_J-153" value="" style="shape=flexArrow;endArrow=classic;html=1;rounded=0;fillColor=#7EA6E0;strokeColor=none;" edge="1" parent="1" target="CHzbfjj1ZIRkGf9tCg_J-151">
          <mxGeometry width="50" height="50" relative="1" as="geometry">
            <mxPoint x="680" y="699.78" as="sourcePoint" />
            <mxPoint x="890" y="644.78" as="targetPoint" />
          </mxGeometry>
        </mxCell>
      </root>
    </mxGraphModel>
  </diagram>
</mxfile>
